<?xml version="1.0" standalone="no"?><!DOCTYPE svg PUBLIC "-//W3C//DTD SVG 1.1//EN" "http://www.w3.org/Graphics/SVG/1.1/DTD/svg11.dtd"><svg t="1598151904798" class="icon" viewBox="0 0 1024 1024" version="1.1" xmlns="http://www.w3.org/2000/svg" p-id="761" xmlns:xlink="http://www.w3.org/1999/xlink" width="200" height="200"><defs><style type="text/css"></style></defs><path d="M167.363264 675.853835c0 35.349089 29.852912 63.978127 66.677608 63.978127 36.863582 0 66.735937-28.630061 66.735937-63.978127 0-35.387975-29.872355-63.978127-66.735937-63.978127-36.824697 0.001023-66.677609 28.590152-66.677608 63.978127z m562.2648 63.97915c36.863582 0 66.735937-28.630061 66.735937-63.978127 0-35.387975-29.871331-63.978127-66.735937-63.978126-36.824697 0-66.697051 28.589129-66.697051 63.978126 0 35.348066 29.871331 63.978127 66.697051 63.978127z m-59.005882-274.247084h66.463738c2.098801 0 4.370541 0.50449 6.604418 0.85446 1.786693-0.233314 3.495614-0.854461 5.321192-0.85446h111.175055c36.824697 0 88.936565 56.286957 88.936566 91.479481v14.800077c0 23.152303-26.668383 21.520129-60.579727 21.248953 13.868869 24.550139 21.851681 52.557006 21.85168 82.468247 0 95.909373-80.914868 173.677575-180.766017 173.677575-68.853158 0-128.655172-37.020148-159.226444-91.422176h-177.134303c-30.590715 54.402027-90.548272 91.422176-159.498644 91.422176-100.026134 0-181.096545-77.768201-181.096544-173.677575 0-58.461483 30.27963-109.853967 76.447112-141.318586-1.048889-4.466732-1.670036-9.090029-1.670035-13.848403l41.85527-66.910922c-35.485189-17.907858-58.830897-50.538023-58.830897-79.632665v-22.860661c0-37.894052 31.503505-68.542072 70.309322-68.542072h144.543024c29.676903-30.804586 79.846536-66.075905 104.882746-52.208059 32.007995 17.71343 21.092387 65.064878 8.253988 94.684476l-23.327288 56.578599v15.207354c0 31.289634-21.557992 57.355289-50.964742 65.513086-32.55137 115.641787 91.675956 176.434362 172.396395 90.353844a102.778828 102.778828 0 0 0 7.342222-14.508435c0.36839 0.311085 0.523933 0.447185 0.485047 0.387833 28.317952-61.510936 98.782817-71.41654 126.226866-72.892147z m226.3891-55.122435H638.225331c-39.020712 0-70.582545-29.016871-70.582545-64.754816V237.797941c0-35.775808 31.581276-64.754816 70.582545-64.754816h258.785951c38.962384 0 70.582545 28.979008 70.582545 64.754816v107.911732c0 35.736922-31.620162 64.753793-70.582545 64.753793z" p-id="762"></path></svg>