<?xml version="1.0" standalone="no"?><!DOCTYPE svg PUBLIC "-//W3C//DTD SVG 1.1//EN" "http://www.w3.org/Graphics/SVG/1.1/DTD/svg11.dtd"><svg t="1598152002690" class="icon" viewBox="0 0 1024 1024" version="1.1" xmlns="http://www.w3.org/2000/svg" p-id="3684" xmlns:xlink="http://www.w3.org/1999/xlink" width="200" height="200"><defs><style type="text/css"></style></defs><path d="M618.666667 746.666667c-187.733333 0-341.333333-153.6-341.333334-341.333334S430.933333 64 618.666667 64s341.333333 153.6 341.333333 341.333333-153.6 341.333333-341.333333 341.333334z m0-597.333334c-140.8 0-256 115.2-256 256s115.2 256 256 256 256-115.2 256-256S759.466667 149.333333 618.666667 149.333333z" fill="" p-id="3685"></path><path d="M618.666667 576c-93.866667 0-170.666667-76.8-170.666667-170.666667s76.8-170.666667 170.666667-170.666666v85.333333c-46.933333 0-85.333333 38.4-85.333334 85.333333s38.4 85.333333 85.333334 85.333334v85.333333z" fill="#29ABE2" p-id="3686"></path><path d="M76.373333 887.253333l277.546667-277.546666 60.373333 60.352-277.568 277.546666z" fill="" p-id="3687"></path></svg>